<svg width="485" height="230" viewBox="0 0 485 230" fill="none" xmlns="http://www.w3.org/2000/svg">
<path d="M485 155.238C485 163.783 477.933 170.73 469.192 170.73C460.45 170.73 453.383 163.783 453.383 155.238C453.383 146.692 460.45 139.745 469.192 139.745C477.933 139.745 485 146.692 485 155.238Z" fill="#FABD00"/>
<path d="M227.007 168.2H259.256V0H227.007V168.2Z" fill="#FABD00"/>
<path d="M438.208 101.354V168.201H405.466V104.186C405.466 93.2898 400.219 86.3284 389.746 86.3284C378.817 86.3284 372.702 93.9384 372.702 106.802V168.201H339.961V104.186C339.961 93.2898 334.713 86.3284 324.219 86.3284C313.312 86.3284 307.197 93.9384 307.197 106.802V168.201H274.434V59.326H307.197V69.3573C312.228 61.9419 321.812 56.2776 336.448 56.2776C349.328 56.2776 358.955 61.5095 365.048 70.6545C371.185 61.9419 381.224 56.2776 396.728 56.2776C421.837 56.2776 438.208 74.1352 438.208 101.354Z" fill="#FABD00"/>
<path d="M177.943 113.82C177.943 97.4597 167.082 87.2237 152.076 87.2237C137.071 87.2237 126.21 97.4597 126.21 113.82C126.21 130.159 137.071 140.395 152.076 140.395C167.082 140.395 177.943 130.159 177.943 113.82ZM210.567 59.329V168.311H177.943V158.053C170.775 166.342 160.13 171.362 145.556 171.362C117.077 171.362 93.5857 146.281 93.5857 113.82C93.5857 81.3374 117.077 56.2776 145.556 56.2776C160.13 56.2776 170.775 61.2983 177.943 69.5866V59.329" fill="#FABD00"/>
<path d="M79.0111 126.891C75.5419 134.53 67.0423 139.096 57.437 139.096C43.2349 139.096 32.7623 128.86 32.7623 113.82C32.7623 98.7797 43.2349 88.5437 57.437 88.5437C67.0423 88.5437 75.3033 93.1099 79.0111 100.749L79.3363 100.554C81.3094 88.587 85.9711 77.4205 92.9529 67.9203C83.3259 60.6058 71.0536 56.2776 57.8706 56.2776C24.6747 56.2776 0 81.3374 0 113.82C0 146.302 24.6747 171.362 57.8706 171.362C71.162 171.362 83.3692 167.034 92.9529 159.698C85.9495 150.198 81.3094 139.053 79.3363 127.064" fill="#FABD00"/>
<path d="M23.8613 218.144V210.208H39.8613V200.48H23.8613V193.056H41.4613V183.2H13.6213V228H41.7812V218.144H23.8613ZM72.5188 183.2V207.52L55.2388 183.2H47.5588V228H57.7988V203.68L75.0788 228H82.7588V183.2H72.5188ZM101.186 228H114.242L128.834 183.2H117.634L107.714 216.16L97.7938 183.2H86.5938L101.186 228ZM132.684 183.2V228H142.924V183.2H132.684ZM171.997 228.896C184.861 228.896 195.293 218.784 195.293 205.6C195.293 192.416 184.861 182.304 171.997 182.304C159.133 182.304 148.701 192.416 148.701 205.6C148.701 218.784 159.133 228.896 171.997 228.896ZM171.997 218.912C164.701 218.912 158.941 213.6 158.941 205.6C158.941 197.6 164.701 192.288 171.997 192.288C179.293 192.288 185.053 197.6 185.053 205.6C185.053 213.6 179.293 218.912 171.997 218.912ZM217.059 183.2V228H227.299V183.2H217.059ZM259.956 183.2V207.52L242.676 183.2H234.996V228H245.236V203.68L262.516 228H270.196V183.2H259.956ZM307.951 183.2H274.671V193.056H286.191V228H296.431V193.056H307.951V183.2ZM322.674 218.144V210.208H338.674V200.48H322.674V193.056H340.274V183.2H312.434V228H340.594V218.144H322.674ZM369.923 228H380.931L371.395 211.552C376.323 209.056 379.651 204.064 379.651 198.56C379.651 190.048 372.803 183.2 364.291 183.2H346.371V228H356.611V213.28H361.475L369.923 228ZM356.611 192.8H364.291C367.107 192.8 369.411 195.296 369.411 198.56C369.411 201.824 367.107 204.32 364.291 204.32H356.611V192.8ZM410.706 183.2V207.52L393.426 183.2H385.746V228H395.986V203.68L413.266 228H420.946V183.2H410.706ZM449.997 228.896C462.861 228.896 473.293 218.784 473.293 205.6C473.293 192.416 462.861 182.304 449.997 182.304C437.133 182.304 426.701 192.416 426.701 205.6C426.701 218.784 437.133 228.896 449.997 228.896ZM449.997 218.912C442.701 218.912 436.941 213.6 436.941 205.6C436.941 197.6 442.701 192.288 449.997 192.288C457.293 192.288 463.053 197.6 463.053 205.6C463.053 213.6 457.293 218.912 449.997 218.912Z" fill="#5906AC"/>
</svg>
