<svg width="485" height="243" viewBox="0 0 485 243" fill="none" xmlns="http://www.w3.org/2000/svg">
<path d="M485 155.238C485 163.783 477.933 170.73 469.192 170.73C460.45 170.73 453.383 163.783 453.383 155.238C453.383 146.692 460.45 139.745 469.192 139.745C477.933 139.745 485 146.692 485 155.238Z" fill="#FABD00"/>
<path d="M227.007 168.201H259.256V0H227.007V168.201Z" fill="#FABD00"/>
<path d="M438.208 101.354V168.201H405.466V104.186C405.466 93.2898 400.219 86.3284 389.746 86.3284C378.817 86.3284 372.702 93.9384 372.702 106.802V168.201H339.961V104.186C339.961 93.2898 334.713 86.3284 324.219 86.3284C313.312 86.3284 307.197 93.9384 307.197 106.802V168.201H274.434V59.326H307.197V69.3573C312.228 61.9419 321.812 56.2776 336.448 56.2776C349.328 56.2776 358.955 61.5095 365.048 70.6545C371.185 61.9419 381.224 56.2776 396.728 56.2776C421.837 56.2776 438.208 74.1352 438.208 101.354Z" fill="#FABD00"/>
<path d="M177.943 113.82C177.943 97.4597 167.083 87.2237 152.077 87.2237C137.071 87.2237 126.21 97.4597 126.21 113.82C126.21 130.159 137.071 140.395 152.077 140.395C167.083 140.395 177.943 130.159 177.943 113.82ZM210.567 59.329V168.311H177.943V158.053C170.775 166.342 160.13 171.362 145.556 171.362C117.077 171.362 93.5859 146.281 93.5859 113.82C93.5859 81.3374 117.077 56.2776 145.556 56.2776C160.13 56.2776 170.775 61.2983 177.943 69.5866V59.329" fill="#FABD00"/>
<path d="M79.0111 126.891C75.5419 134.53 67.0423 139.096 57.437 139.096C43.2349 139.096 32.7623 128.86 32.7623 113.82C32.7623 98.7797 43.2349 88.5437 57.437 88.5437C67.0423 88.5437 75.3034 93.1099 79.0111 100.749L79.3363 100.554C81.3094 88.587 85.9711 77.4205 92.9529 67.9203C83.3259 60.6058 71.0536 56.2776 57.8706 56.2776C24.6747 56.2776 0 81.3374 0 113.82C0 146.302 24.6747 171.362 57.8706 171.362C71.162 171.362 83.3692 167.034 92.9529 159.698C85.9495 150.198 81.3094 139.053 79.3363 127.064" fill="#FABD00"/>
<path d="M127.247 219.736C124.005 222.509 119.866 223.896 114.831 223.896C109.797 223.896 105.658 222.509 102.415 219.736C99.1726 216.963 97.5513 213.229 97.5513 208.536V178.2H107.791V207.64C107.791 211.821 110.138 213.912 114.831 213.912C119.525 213.912 121.871 211.821 121.871 207.64V178.2H132.111V208.536C132.111 213.229 130.49 216.963 127.247 219.736ZM164.456 178.2H174.696V223H167.016L149.736 198.68V223H139.496V178.2H147.176L164.456 202.52V178.2ZM227.171 178.2V223H216.931V196.952L205.347 215.96H204.195L192.611 196.952V223H182.371V178.2H192.611L204.771 198.104L216.931 178.2H227.171ZM263.351 223L261.111 215.96H244.471L242.231 223H231.031L246.263 178.2H259.319L274.551 223H263.351ZM247.543 206.36H258.039L252.791 189.912L247.543 206.36ZM305.264 178.2V188.056H293.744V223H283.504V188.056H271.984V178.2H305.264ZM328.56 223.896C321.861 223.896 316.293 221.677 311.856 217.24C307.461 212.76 305.264 207.213 305.264 200.6C305.264 193.987 307.461 188.461 311.856 184.024C316.293 179.544 321.861 177.304 328.56 177.304C332.57 177.304 336.282 178.243 339.696 180.12C343.109 181.955 345.797 184.472 347.76 187.672L338.928 192.792C337.946 191.043 336.538 189.699 334.704 188.76C332.869 187.779 330.821 187.288 328.56 187.288C324.592 187.288 321.413 188.504 319.024 190.936C316.677 193.368 315.504 196.589 315.504 200.6C315.504 204.611 316.677 207.832 319.024 210.264C321.413 212.696 324.592 213.912 328.56 213.912C330.821 213.912 332.869 213.421 334.704 212.44C336.581 211.459 337.989 210.115 338.928 208.408L347.76 213.528C345.84 216.728 343.173 219.267 339.76 221.144C336.346 222.979 332.613 223.896 328.56 223.896ZM376.879 178.2H387.119V223H376.879V205.208H362.799V223H352.559V178.2H362.799V195.352H376.879V178.2Z" fill="#5906AC"/>
</svg>
