<svg width="50" height="50" viewBox="0 0 50 50" fill="none" xmlns="http://www.w3.org/2000/svg">
<path fill-rule="evenodd" clip-rule="evenodd" d="M25 0C27.7614 0 30 2.23858 30 5C30 7.76142 27.7614 10 25 10C22.2386 10 20 7.76142 20 5C20 2.23858 22.2386 0 25 0ZM40 0C42.7614 0 45 2.23858 45 5C45 7.76142 42.7614 10 40 10C37.2386 10 35 7.76142 35 5C35 2.23858 37.2386 0 40 0ZM10 0C12.7614 0 15 2.23858 15 5C15 7.76142 12.7614 10 10 10C7.23858 10 5 7.76142 5 5C5 2.23858 7.23858 0 10 0ZM25 13.3333C27.7614 13.3333 30 15.5719 30 18.3333C30 21.0947 27.7614 23.3333 25 23.3333C22.2386 23.3333 20 21.0947 20 18.3333C20 15.5719 22.2386 13.3333 25 13.3333ZM40 13.3333C42.7614 13.3333 45 15.5719 45 18.3333C45 21.0947 42.7614 23.3333 40 23.3333C37.2386 23.3333 35 21.0947 35 18.3333C35 15.5719 37.2386 13.3333 40 13.3333ZM10 13.3333C12.7614 13.3333 15 15.5719 15 18.3333C15 21.0947 12.7614 23.3333 10 23.3333C7.23858 23.3333 5 21.0947 5 18.3333C5 15.5719 7.23858 13.3333 10 13.3333ZM25 26.6667C27.7614 26.6667 30 28.9052 30 31.6667C30 34.4281 27.7614 36.6667 25 36.6667C22.2386 36.6667 20 34.4281 20 31.6667C20 28.9052 22.2386 26.6667 25 26.6667ZM40 26.6667C42.7614 26.6667 45 28.9052 45 31.6667C45 34.4281 42.7614 36.6667 40 36.6667C37.2386 36.6667 35 34.4281 35 31.6667C35 28.9052 37.2386 26.6667 40 26.6667ZM10 26.6667C12.7614 26.6667 15 28.9052 15 31.6667C15 34.4281 12.7614 36.6667 10 36.6667C7.23858 36.6667 5 34.4281 5 31.6667C5 28.9052 7.23858 26.6667 10 26.6667ZM25 40C27.7614 40 30 42.2386 30 45C30 47.7614 27.7614 50 25 50C22.2386 50 20 47.7614 20 45C20 42.2386 22.2386 40 25 40Z" fill="black"/>
</svg>
