<svg width="485" height="230" viewBox="0 0 485 230" fill="none" xmlns="http://www.w3.org/2000/svg">
<path d="M485 155.238C485 163.783 477.933 170.73 469.192 170.73C460.45 170.73 453.383 163.783 453.383 155.238C453.383 146.692 460.45 139.745 469.192 139.745C477.933 139.745 485 146.692 485 155.238Z" fill="#FABD00"/>
<path d="M227.007 168.2H259.256V0H227.007V168.2Z" fill="#FABD00"/>
<path d="M438.208 101.354V168.201H405.466V104.186C405.466 93.2898 400.219 86.3284 389.746 86.3284C378.817 86.3284 372.702 93.9384 372.702 106.802V168.201H339.961V104.186C339.961 93.2898 334.713 86.3284 324.219 86.3284C313.312 86.3284 307.197 93.9384 307.197 106.802V168.201H274.434V59.326H307.197V69.3573C312.228 61.9419 321.812 56.2776 336.448 56.2776C349.328 56.2776 358.955 61.5095 365.048 70.6545C371.185 61.9419 381.224 56.2776 396.728 56.2776C421.837 56.2776 438.208 74.1352 438.208 101.354Z" fill="#FABD00"/>
<path d="M177.943 113.82C177.943 97.4597 167.082 87.2237 152.076 87.2237C137.071 87.2237 126.21 97.4597 126.21 113.82C126.21 130.159 137.071 140.395 152.076 140.395C167.082 140.395 177.943 130.159 177.943 113.82ZM210.567 59.329V168.311H177.943V158.053C170.775 166.342 160.13 171.362 145.556 171.362C117.077 171.362 93.5857 146.281 93.5857 113.82C93.5857 81.3374 117.077 56.2776 145.556 56.2776C160.13 56.2776 170.775 61.2983 177.943 69.5866V59.329" fill="#FABD00"/>
<path d="M79.0111 126.891C75.5419 134.53 67.0423 139.096 57.437 139.096C43.2349 139.096 32.7623 128.86 32.7623 113.82C32.7623 98.7797 43.2349 88.5437 57.437 88.5437C67.0423 88.5437 75.3033 93.1099 79.0111 100.749L79.3363 100.554C81.3094 88.587 85.9711 77.4205 92.9529 67.9203C83.3259 60.6058 71.0536 56.2776 57.8706 56.2776C24.6747 56.2776 0 81.3374 0 113.82C0 146.302 24.6747 171.362 57.8706 171.362C71.162 171.362 83.3692 167.034 92.9529 159.698C85.9495 150.198 81.3094 139.053 79.3363 127.064" fill="#FABD00"/>
<path d="M81.51 183.2H63.59V228H81.51C93.862 228 103.27 218.272 103.27 205.6C103.27 192.928 93.862 183.2 81.51 183.2ZM81.51 218.144H73.83V193.056H81.51C88.55 193.056 93.414 197.92 93.414 205.6C93.414 213.28 88.55 218.144 81.51 218.144ZM119.268 218.144V210.208H135.268V200.48H119.268V193.056H136.868V183.2H109.028V228H137.188V218.144H119.268ZM158.645 228.896C168.373 228.896 175.285 223.776 175.285 215.136C175.285 205.664 167.669 203.296 160.885 201.248C153.909 199.136 152.821 197.728 152.821 195.68C152.821 193.888 154.421 192.288 157.621 192.288C161.717 192.288 163.829 194.272 165.365 197.472L174.005 192.416C170.741 185.824 164.981 182.304 157.621 182.304C149.877 182.304 142.581 187.296 142.581 195.936C142.581 204.512 149.109 207.712 155.765 209.568C162.485 211.424 165.045 212.512 165.045 215.264C165.045 216.992 163.829 218.912 158.965 218.912C153.909 218.912 151.157 216.416 149.557 212.704L140.725 217.824C143.221 224.416 149.237 228.896 158.645 228.896ZM197.05 183.2H180.09V228H190.33V213.92H197.05C205.882 213.92 212.73 207.072 212.73 198.56C212.73 190.048 205.882 183.2 197.05 183.2ZM197.05 204.32H190.33V192.8H197.05C200.186 192.8 202.49 195.296 202.49 198.56C202.49 201.824 200.186 204.32 197.05 204.32ZM241.82 228H253.02L237.788 183.2H224.732L209.5 228H220.7L222.94 220.96H239.58L241.82 228ZM226.012 211.36L231.26 194.912L236.508 211.36H226.012ZM276.591 228.896C284.783 228.896 291.951 224.864 295.791 218.528L286.959 213.408C285.039 216.864 281.135 218.912 276.591 218.912C268.655 218.912 263.535 213.6 263.535 205.6C263.535 197.6 268.655 192.288 276.591 192.288C281.135 192.288 284.975 194.336 286.959 197.792L295.791 192.672C291.887 186.336 284.719 182.304 276.591 182.304C263.087 182.304 253.295 192.416 253.295 205.6C253.295 218.784 263.087 228.896 276.591 228.896ZM324.91 183.2V200.352H310.83V183.2H300.59V228H310.83V210.208H324.91V228H335.15V183.2H324.91ZM364.216 228.896C377.08 228.896 387.512 218.784 387.512 205.6C387.512 192.416 377.08 182.304 364.216 182.304C351.352 182.304 340.92 192.416 340.92 205.6C340.92 218.784 351.352 228.896 364.216 228.896ZM364.216 218.912C356.92 218.912 351.16 213.6 351.16 205.6C351.16 197.6 356.92 192.288 364.216 192.288C371.512 192.288 377.272 197.6 377.272 205.6C377.272 213.6 371.512 218.912 364.216 218.912ZM407.333 228.896C417.061 228.896 423.972 223.776 423.972 215.136C423.972 205.664 416.357 203.296 409.573 201.248C402.597 199.136 401.509 197.728 401.509 195.68C401.509 193.888 403.109 192.288 406.309 192.288C410.405 192.288 412.517 194.272 414.053 197.472L422.693 192.416C419.429 185.824 413.669 182.304 406.309 182.304C398.565 182.304 391.269 187.296 391.269 195.936C391.269 204.512 397.797 207.712 404.453 209.568C411.173 211.424 413.733 212.512 413.733 215.264C413.733 216.992 412.517 218.912 407.653 218.912C402.597 218.912 399.845 216.416 398.245 212.704L389.413 217.824C391.909 224.416 397.925 228.896 407.333 228.896Z" fill="#5906AC"/>
</svg>
