<svg width="767" height="271" viewBox="0 0 767 271" fill="none" xmlns="http://www.w3.org/2000/svg">
<path d="M767 245.5C767 259.014 755.824 270 742 270C728.176 270 717 259.014 717 245.5C717 231.986 728.176 221 742 221C755.824 221 767 231.986 767 245.5Z" fill="#FABD00"/>
<path d="M359 266H410V0H359V266Z" fill="#FABD00"/>
<path d="M693 160.285V266H641.221V164.764C641.221 147.533 632.922 136.524 616.36 136.524C599.077 136.524 589.407 148.558 589.407 168.901V266H537.627V164.764C537.627 147.533 529.329 136.524 512.732 136.524C495.484 136.524 485.814 148.558 485.814 168.901V266H434V93.8207H485.814V109.685C493.769 97.9577 508.926 89 532.072 89C552.441 89 567.666 97.2739 577.302 111.736C587.006 97.9577 602.883 89 627.401 89C667.11 89 693 117.241 693 160.285Z" fill="#FABD00"/>
<path d="M281.406 180C281.406 154.127 264.231 137.939 240.5 137.939C216.769 137.939 199.594 154.127 199.594 180C199.594 205.839 216.769 222.026 240.5 222.026C264.231 222.026 281.406 205.839 281.406 180ZM333 93.8255V266.175H281.406V249.953C270.07 263.06 253.236 271 230.188 271C185.15 271 148 231.335 148 180C148 128.631 185.15 89 230.188 89C253.236 89 270.07 96.9398 281.406 110.047V93.8255" fill="#FABD00"/>
<path d="M124.952 200.671C119.465 212.752 106.024 219.973 90.8335 219.973C68.3737 219.973 51.8118 203.785 51.8118 180C51.8118 156.215 68.3737 140.027 90.8335 140.027C106.024 140.027 119.088 147.248 124.952 159.329L125.466 159.021C128.586 140.096 135.959 122.436 147 107.412C131.775 95.8447 112.367 89 91.5192 89C39.0217 89 0 128.631 0 180C0 231.369 39.0217 271 91.5192 271C112.539 271 131.844 264.155 147 252.554C135.924 237.53 128.586 219.904 125.466 200.945" fill="#FABD00"/>
</svg>
