<svg width="55" height="50" viewBox="0 0 55 50" fill="none" xmlns="http://www.w3.org/2000/svg">
<path d="M23.9835 47.2509H11.5881C9.29881 47.2509 7.43711 45.4014 7.43711 43.1271V35.1952C7.43711 34.4364 6.81723 33.8206 6.05346 33.8206C5.28969 33.8206 4.66981 34.4364 4.66981 35.1952V43.1271C4.66981 46.9168 7.77333 50 11.5881 50H23.9835C24.7472 50 25.3671 49.3842 25.3671 48.6254C25.3671 47.8667 24.7472 47.2509 23.9835 47.2509ZM31.0165 2.74914H43.4119C45.7012 2.74914 47.5629 4.59863 47.5629 6.87285V25.9168C47.5629 26.6756 48.1828 27.2914 48.9465 27.2914C49.7103 27.2914 50.3302 26.6756 50.3302 25.9168V6.87285C50.3302 3.08316 47.2267 0 43.4119 0H31.0165C30.2528 0 29.6329 0.615808 29.6329 1.37457C29.6329 2.13333 30.2528 2.74914 31.0165 2.74914ZM6.05346 27.2914C6.81723 27.2914 7.43711 26.6756 7.43711 25.9168V6.87285C7.43711 4.59863 9.29881 2.74914 11.5881 2.74914H23.9835C24.7472 2.74914 25.3671 2.13333 25.3671 1.37457C25.3671 0.615808 24.7472 0 23.9835 0H11.5881C7.77333 0 4.66981 3.08316 4.66981 6.87285V25.9168C4.66981 26.6756 5.28969 27.2914 6.05346 27.2914ZM48.9465 33.8206C48.1828 33.8206 47.5629 34.4364 47.5629 35.1952V43.1271C47.5629 45.4014 45.7012 47.2509 43.4119 47.2509H31.0165C30.2528 47.2509 29.6329 47.8667 29.6329 48.6254C29.6329 49.3842 30.2528 50 31.0165 50H43.4119C47.2267 50 50.3302 46.9168 50.3302 43.1271V35.1952C50.3302 34.4357 49.7103 33.8206 48.9465 33.8206ZM53.6164 29.1237H1.38365C0.619874 29.1237 0 29.7395 0 30.4983C0 31.257 0.619874 31.8729 1.38365 31.8729H53.6164C54.3801 31.8729 55 31.257 55 30.4983C55 29.7395 54.3801 29.1237 53.6164 29.1237ZM26.8082 7.13127H11.5881V22.2515H26.8082V7.13127ZM24.0409 19.5024H14.3553V9.88041H24.0409V19.5024ZM31.8813 7.13127H29.114V14.0041H31.8813V7.13127ZM40.1832 16.4948H29.114V27.4914H40.1832V16.4948ZM37.4159 24.7423H31.8813V19.244H37.4159V24.7423ZM26.5487 27.6351V24.8859H17.0071V27.6351H26.5487ZM14.3553 34.6227H11.5881V42.1821H27.5V39.433H14.3553V34.6227ZM44.7091 7.13127H34.1588V9.88041H41.9418V17.4399H44.7091V7.13127ZM34.1588 14.6907H38.1077V11.9416H34.1588V14.6907ZM41.9418 26.2605H44.7091V22.1368H41.9418V26.2605ZM17.555 34.8797V37.6289H24.7327V34.8797H17.555ZM28.9411 34.0639V36.8131H35.8593V39.433H33.9568V42.1821H44.7091V33.9347H41.9418V39.433H38.6266V34.0632H28.9411V34.0639ZM21.0142 13.1443H16.8632V17.268H21.0142V13.1443ZM36.5511 20.1031H32.7461V23.8832H36.5511V20.1031ZM11.5881 27.5203H14.3553V24.0557H11.5881V27.5203Z" fill="black"/>
</svg>
